<svg xmlns="http://www.w3.org/2000/svg" width="435" height="68" fill="none" viewBox="0 0 435 68">
    <path fill="#EB5757" d="M17.118 67.387c-5.045 0-9.16-1.322-12.343-3.964C1.592 60.72.001 57.236.001 52.973c0-4.445 1.711-7.929 5.135-10.451 3.423-2.523 8.138-3.784 14.144-3.784A37.294 37.294 0 0 1 30.72 40.54v-3.333c0-2.703-.84-4.745-2.522-6.126-1.682-1.382-4.145-2.072-7.388-2.072-1.982 0-4.144.33-6.486.99-2.282.601-4.895 1.562-7.838 2.883l-4.504-9.099C5.646 22.102 9.19 20.84 12.613 20c3.484-.841 6.907-1.262 10.27-1.262 6.307 0 11.201 1.532 14.685 4.595 3.543 3.003 5.315 7.267 5.315 12.793v30.45H30.721v-3.243c-1.982 1.381-4.084 2.402-6.306 3.063-2.162.66-4.595.99-7.297.99zm-5.316-14.685c0 1.802.781 3.243 2.343 4.324 1.561 1.021 3.633 1.532 6.216 1.532 2.042 0 3.904-.24 5.585-.72a18.364 18.364 0 0 0 4.775-2.253v-7.027a20.68 20.68 0 0 0-4.775-1.261c-1.621-.3-3.333-.45-5.135-.45-2.823 0-5.045.54-6.666 1.62-1.562 1.022-2.343 2.433-2.343 4.235zm40.422 13.874V19.639h12.343v3.694a19.658 19.658 0 0 1 5.945-3.423c2.223-.781 4.625-1.172 7.208-1.172 5.405 0 9.85 1.742 13.333 5.226 3.483 3.483 5.225 7.957 5.225 13.423v29.189H83.936V39.189c0-2.943-.901-5.316-2.703-7.117-1.742-1.802-4.084-2.703-7.027-2.703-2.042 0-3.904.42-5.585 1.261-1.622.78-2.973 1.922-4.054 3.424v32.522H52.224zm88.448 0v-3.874a20.28 20.28 0 0 1-6.217 3.423 23.49 23.49 0 0 1-7.117 1.081c-3.303 0-6.426-.63-9.369-1.891-2.883-1.262-5.405-2.973-7.567-5.136-2.163-2.162-3.874-4.714-5.135-7.657-1.202-2.943-1.802-6.096-1.802-9.46 0-3.363.63-6.516 1.892-9.459 1.261-2.943 2.973-5.495 5.135-7.658 2.162-2.162 4.714-3.843 7.657-5.044 3.003-1.262 6.186-1.892 9.55-1.892 2.282 0 4.504.33 6.666.99 2.223.601 4.265 1.502 6.126 2.703V3.513L152.834.811v65.765h-12.162zm-25.045-23.513c0 3.783 1.321 6.996 3.964 9.639 2.642 2.643 5.886 3.964 9.729 3.964 2.283 0 4.355-.39 6.217-1.171 1.921-.781 3.573-1.892 4.954-3.334V33.873c-1.321-1.381-2.972-2.462-4.954-3.243-1.922-.78-3.994-1.171-6.217-1.171-3.903 0-7.177 1.321-9.819 3.964-2.583 2.582-3.874 5.796-3.874 9.64zm65.045 23.513V19.639h12.342v3.514a17.447 17.447 0 0 1 5.586-3.243c2.042-.781 4.264-1.172 6.666-1.172 3.003 0 5.706.631 8.108 1.892a15.624 15.624 0 0 1 6.036 5.135c1.862-2.282 4.115-4.024 6.757-5.225 2.643-1.201 5.556-1.802 8.739-1.802 5.225 0 9.519 1.742 12.883 5.226 3.363 3.483 5.045 7.957 5.045 13.423v29.189h-12.343V39.189c0-2.943-.81-5.316-2.432-7.117-1.562-1.802-3.694-2.703-6.396-2.703-1.862 0-3.574.42-5.135 1.261-1.502.78-2.793 1.922-3.874 3.424l.18 1.621c.06.54.09 1.111.09 1.712v29.189h-12.342V39.189c0-2.943-.811-5.316-2.433-7.117-1.561-1.802-3.693-2.703-6.396-2.703-1.862 0-3.514.36-4.955 1.081-1.441.72-2.703 1.772-3.784 3.153v32.973h-12.342zm123.715-5.856c-2.883 2.342-5.856 4.054-8.919 5.135-3.003 1.081-6.366 1.622-10.09 1.622-3.543 0-6.876-.63-10-1.892-3.063-1.261-5.735-2.973-8.017-5.135-2.223-2.162-3.994-4.715-5.316-7.658-1.261-3.003-1.892-6.216-1.892-9.64 0-3.363.601-6.516 1.802-9.459 1.261-3.003 2.973-5.585 5.135-7.747 2.162-2.223 4.715-3.964 7.658-5.226 3.003-1.26 6.186-1.892 9.549-1.892 3.304 0 6.367.661 9.189 1.982 2.883 1.262 5.346 3.003 7.388 5.226 2.102 2.222 3.723 4.894 4.865 8.017 1.201 3.064 1.801 6.397 1.801 10v3.244h-34.954c.841 2.943 2.462 5.315 4.865 7.117 2.402 1.801 5.225 2.702 8.468 2.702 2.042 0 3.964-.33 5.766-.99 1.801-.661 3.333-1.592 4.594-2.793l8.108 7.387zm-20.36-31.711c-2.823 0-5.255.87-7.297 2.612-2.042 1.682-3.454 3.964-4.234 6.847h22.972c-.78-2.763-2.222-5.015-4.324-6.757-2.042-1.802-4.414-2.702-7.117-2.702zm66.472 37.567v-3.874a20.286 20.286 0 0 1-6.216 3.423 23.499 23.499 0 0 1-7.117 1.081c-3.304 0-6.427-.63-9.37-1.891-2.882-1.262-5.405-2.973-7.567-5.136-2.162-2.162-3.874-4.714-5.135-7.657-1.201-2.943-1.802-6.096-1.802-9.46 0-3.363.631-6.516 1.892-9.459 1.261-2.943 2.973-5.495 5.135-7.658 2.162-2.162 4.715-3.843 7.658-5.044 3.003-1.262 6.186-1.892 9.549-1.892 2.282 0 4.505.33 6.667.99 2.222.601 4.264 1.502 6.126 2.703V3.513L362.661.811v65.765h-12.162zm-25.045-23.513c0 3.783 1.321 6.996 3.964 9.639 2.643 2.643 5.886 3.964 9.73 3.964 2.282 0 4.354-.39 6.216-1.171 1.922-.781 3.573-1.892 4.955-3.334V33.873c-1.322-1.381-2.973-2.462-4.955-3.243-1.922-.78-3.994-1.171-6.216-1.171-3.904 0-7.177 1.321-9.82 3.964-2.583 2.582-3.874 5.796-3.874 9.64zm53.048-29.01c-1.922 0-3.574-.69-4.955-2.071-1.381-1.382-2.072-3.033-2.072-4.955 0-1.922.691-3.574 2.072-4.955C374.928.69 376.58 0 378.502 0c1.922 0 3.573.69 4.955 2.072 1.381 1.381 2.072 3.033 2.072 4.955 0 1.922-.691 3.573-2.072 4.955-1.382 1.381-3.033 2.072-4.955 2.072zm6.216 5.586v46.937h-12.342V19.639h12.342zm24.517 47.748c-5.045 0-9.159-1.322-12.342-3.964-3.183-2.703-4.775-6.187-4.775-10.45 0-4.445 1.712-7.929 5.135-10.451 3.424-2.523 8.138-3.784 14.144-3.784a37.298 37.298 0 0 1 11.442 1.802v-3.333c0-2.703-.841-4.745-2.523-6.126-1.682-1.382-4.144-2.072-7.387-2.072-1.982 0-4.144.33-6.487.99-2.282.601-4.895 1.562-7.837 2.883l-4.505-9.099c3.664-1.681 7.207-2.943 10.631-3.783 3.483-.841 6.906-1.262 10.27-1.262 6.306 0 11.201 1.532 14.684 4.595 3.544 3.003 5.316 7.267 5.316 12.793v30.45h-12.162v-3.243c-1.982 1.381-4.084 2.402-6.307 3.063-2.162.66-4.594.99-7.297.99zm-5.315-14.685c0 1.802.781 3.243 2.342 4.324 1.562 1.021 3.634 1.532 6.216 1.532 2.042 0 3.904-.24 5.586-.72a18.37 18.37 0 0 0 4.775-2.253v-7.027a20.698 20.698 0 0 0-4.775-1.261c-1.622-.3-3.333-.45-5.135-.45-2.823 0-5.045.54-6.667 1.62-1.561 1.022-2.342 2.433-2.342 4.235z"/>
</svg>
