<svg xmlns="http://www.w3.org/2000/svg" width="68" height="68" fill="none" viewBox="0 0 68 68">
    <g filter="url(#prefix__filter0_d)">
        <ellipse cx="33.851" cy="32" fill="#FFF9F9" rx="29.851" ry="30"/>
    </g>
    <g clip-path="url(#prefix__clip0)">
        <path stroke="#000" stroke-linecap="round" stroke-linejoin="round" stroke-width="2" d="M37.051 25a5.001 5.001 0 013.95 3.95L37.051 25zm0-4a9 9 0 017.95 7.94L37.051 21zm6.95 15.92v3a2 2 0 01-2.18 2 19.79 19.79 0 01-8.63-3.07 19.499 19.499 0 01-6-6 19.79 19.79 0 01-3.07-8.67 2 2 0 011.99-2.18h3a2 2 0 012 1.72c.127.96.362 1.903.7 2.81a2 2 0 01-.45 2.11l-1.27 1.27a16.001 16.001 0 006 6l1.27-1.27a2 2 0 012.11-.45c.908.339 1.85.573 2.81.7a2 2 0 011.72 2.03z"/>
    </g>
    <defs>
        <clipPath id="prefix__clip0">
            <path fill="#fff" d="M22 20H46V44H22z"/>
        </clipPath>
        <filter id="prefix__filter0_d" width="67.701" height="68" x="0" y="0" color-interpolation-filters="sRGB" filterUnits="userSpaceOnUse">
            <feFlood flood-opacity="0" result="BackgroundImageFix"/>
            <feColorMatrix in="SourceAlpha" values="0 0 0 0 0 0 0 0 0 0 0 0 0 0 0 0 0 0 127 0"/>
            <feOffset dy="2"/>
            <feGaussianBlur stdDeviation="2"/>
            <feColorMatrix values="0 0 0 0 0 0 0 0 0 0 0 0 0 0 0 0 0 0 0.25 0"/>
            <feBlend in2="BackgroundImageFix" result="effect1_dropShadow"/>
            <feBlend in="SourceGraphic" in2="effect1_dropShadow" result="shape"/>
        </filter>
    </defs>
</svg>
