<svg xmlns="http://www.w3.org/2000/svg" width="294" height="40" fill="none" viewBox="0 0 294 40">
    <path fill="#333" d="M-.001 31.08v-28h11.4c1.947 0 3.773.373 5.48 1.12 1.733.72 3.227 1.707 4.48 2.96 1.28 1.253 2.28 2.747 3 4.48.747 1.707 1.12 3.547 1.12 5.52 0 1.92-.373 3.733-1.12 5.44a13.469 13.469 0 0 1-3 4.44c-1.253 1.253-2.747 2.24-4.48 2.96-1.707.72-3.533 1.08-5.48 1.08h-11.4zm11.4-22.12h-4.52V25.2h4.52c.96 0 1.867-.2 2.72-.6.853-.427 1.587-1 2.2-1.72.64-.72 1.133-1.573 1.48-2.56.373-.987.56-2.04.56-3.16 0-1.147-.187-2.213-.56-3.2-.347-1.013-.84-1.88-1.48-2.6a6.692 6.692 0 0 0-2.2-1.76 6 6 0 0 0-2.72-.64zm37.03 19.2c-1.333 1.173-2.68 2.027-4.04 2.56-1.36.507-2.906.76-4.64.76-1.52 0-2.946-.267-4.28-.8a11.224 11.224 0 0 1-3.44-2.28 10.413 10.413 0 0 1-2.32-3.4c-.56-1.307-.84-2.707-.84-4.2 0-1.52.267-2.933.8-4.24.534-1.307 1.254-2.44 2.16-3.4a9.866 9.866 0 0 1 3.32-2.24c1.28-.56 2.654-.84 4.12-.84 1.494 0 2.854.28 4.08.84a9.127 9.127 0 0 1 3.2 2.24c.907.96 1.614 2.12 2.12 3.48.507 1.333.76 2.8.76 4.4v1.4h-14.2c.294 1.147.88 2.08 1.76 2.8.88.72 1.907 1.08 3.08 1.08.854 0 1.627-.147 2.32-.44.72-.293 1.307-.72 1.76-1.28l4.28 3.56zm-9.2-13.04c-1.013 0-1.866.32-2.56.96-.693.64-1.173 1.533-1.44 2.68h8.2c-.266-1.12-.773-2-1.52-2.64-.746-.667-1.64-1-2.68-1zm12.748 13.84l2.84-4.32c1.466.773 2.693 1.32 3.68 1.64.986.293 1.973.44 2.96.44.906 0 1.626-.147 2.16-.44.533-.32.8-.733.8-1.24 0-.4-.16-.72-.48-.96-.294-.24-.774-.413-1.44-.52l-3.96-.72c-2-.373-3.52-1.067-4.56-2.08-1.014-1.013-1.52-2.32-1.52-3.92 0-2.107.76-3.76 2.28-4.96 1.546-1.2 3.666-1.8 6.36-1.8 1.44 0 2.866.2 4.28.6 1.413.4 2.786.987 4.12 1.76l-2.96 4.12c-1.04-.587-2.054-1.027-3.04-1.32a9.808 9.808 0 0 0-2.88-.44c-.774 0-1.387.133-1.84.4-.427.24-.64.587-.64 1.04 0 .427.146.747.44.96.32.213.88.387 1.68.52l3.88.72c2.026.373 3.573 1.08 4.64 2.12 1.066 1.013 1.586 2.293 1.56 3.84 0 1.013-.227 1.96-.68 2.84-.427.853-1.04 1.6-1.84 2.24-.8.613-1.747 1.107-2.84 1.48-1.094.347-2.267.52-3.52.52-1.867 0-3.614-.213-5.24-.64-1.627-.427-3.04-1.053-4.24-1.88zm25.35-21.72c-1.014 0-1.88-.347-2.6-1.04-.694-.72-1.04-1.573-1.04-2.56 0-.987.36-1.84 1.08-2.56C75.486.36 76.34 0 77.326 0c.986 0 1.84.36 2.56 1.08.746.72 1.12 1.573 1.12 2.56 0 .987-.36 1.84-1.08 2.56-.694.693-1.56 1.04-2.6 1.04zm3.24 3.2v20.64h-6.48V10.44h6.48zm13.243 20.6a8.178 8.178 0 0 1-3.56-.8A9.6 9.6 0 0 1 87.33 28c-.8-.933-1.44-2.027-1.92-3.28-.48-1.28-.72-2.64-.72-4.08s.24-2.787.72-4.04a10.817 10.817 0 0 1 2.04-3.28 9.72 9.72 0 0 1 3.08-2.2 8.979 8.979 0 0 1 3.76-.8c1.093 0 2.12.227 3.08.68a7.135 7.135 0 0 1 2.52 1.92v-2.48h6.36v20.92c0 2.773-.947 4.907-2.84 6.4-1.867 1.493-4.547 2.24-8.04 2.24-1.547 0-3.053-.16-4.52-.48a18.45 18.45 0 0 1-4.04-1.36l2-4.68c1.147.533 2.24.933 3.28 1.2 1.04.267 2.053.4 3.04.4 1.52 0 2.68-.32 3.48-.96.8-.64 1.2-1.587 1.2-2.84v-2.96c-.667.827-1.534 1.493-2.6 2a8.19 8.19 0 0 1-3.4.72zm-2.76-10.36c0 1.44.466 2.653 1.4 3.64.96.96 2.133 1.44 3.52 1.44a5.46 5.46 0 0 0 2.12-.4 5.548 5.548 0 0 0 1.72-1.24v-6.88a5.186 5.186 0 0 0-1.76-1.16 4.93 4.93 0 0 0-2.08-.44c-1.413 0-2.587.48-3.52 1.44-.934.96-1.4 2.16-1.4 3.6zm20.224 10.4V10.44h6.48v3.36c.8-1.2 1.747-2.107 2.84-2.72a7.29 7.29 0 0 1 3.68-.96c2 0 3.64.667 4.92 2 1.28 1.307 1.92 2.987 1.92 5.04v13.92h-6.48V19.04c0-1.147-.32-2.067-.96-2.76-.613-.72-1.44-1.08-2.48-1.08-.693 0-1.333.147-1.92.44-.56.267-1.067.693-1.52 1.28v14.16h-6.48zM157.64 20.8c0 1.44-.253 2.8-.76 4.08a9.872 9.872 0 0 1-2.04 3.28 9.773 9.773 0 0 1-3.04 2.24 8.977 8.977 0 0 1-3.76.8 7.48 7.48 0 0 1-3.16-.68 7.706 7.706 0 0 1-2.48-1.96v2.52H136V2.48l6.48-1v11.6c.667-.827 1.534-1.493 2.6-2a7.918 7.918 0 0 1 3.44-.76c1.254 0 2.44.28 3.56.84a8.42 8.42 0 0 1 2.88 2.24c.827.933 1.48 2.04 1.96 3.32.48 1.28.72 2.64.72 4.08zm-11.28-5.12c-.8 0-1.52.147-2.16.44-.64.267-1.213.68-1.72 1.24v6.88a5.742 5.742 0 0 0 1.76 1.2 5.21 5.21 0 0 0 2.12.44c1.414 0 2.587-.48 3.52-1.44.934-.987 1.4-2.213 1.4-3.68 0-1.44-.48-2.64-1.44-3.6-.933-.987-2.093-1.48-3.48-1.48z"/>
    <path fill="#EB5757" d="M164.743 23.92c.986 0 1.826.373 2.52 1.12.72.747 1.08 1.64 1.08 2.68 0 1.04-.36 1.933-1.08 2.68-.694.747-1.534 1.12-2.52 1.12-.987 0-1.84-.373-2.56-1.12a3.725 3.725 0 0 1-1.08-2.68c0-1.04.36-1.933 1.08-2.68.72-.747 1.573-1.12 2.56-1.12zm6.335 5.04l2.84-4.32c1.467.773 2.694 1.32 3.68 1.64.987.293 1.974.44 2.96.44.907 0 1.627-.147 2.16-.44.534-.32.8-.733.8-1.24 0-.4-.16-.72-.48-.96-.293-.24-.773-.413-1.44-.52l-3.96-.72c-2-.373-3.52-1.067-4.56-2.08-1.013-1.013-1.52-2.32-1.52-3.92 0-2.107.76-3.76 2.28-4.96 1.547-1.2 3.667-1.8 6.36-1.8 1.44 0 2.867.2 4.28.6a17.9 17.9 0 0 1 4.12 1.76l-2.96 4.12c-1.04-.587-2.053-1.027-3.04-1.32a9.808 9.808 0 0 0-2.88-.44c-.773 0-1.386.133-1.84.4-.426.24-.64.587-.64 1.04 0 .427.147.747.44.96.32.213.88.387 1.68.52l3.88.72c2.027.373 3.574 1.08 4.64 2.12 1.067 1.013 1.587 2.293 1.56 3.84 0 1.013-.226 1.96-.68 2.84-.426.853-1.04 1.6-1.84 2.24-.8.613-1.746 1.107-2.84 1.48-1.093.347-2.266.52-3.52.52-1.866 0-3.613-.213-5.24-.64-1.626-.427-3.04-1.053-4.24-1.88zm24.439-4.24v-9.28h-4v-5h4V4.72l6.48-1.32v7.04h5.52v5h-5.52v8c0 .907.2 1.547.6 1.92.427.373 1.134.56 2.12.56.374 0 .747-.027 1.12-.08.374-.053.88-.173 1.52-.36v5.24c-.586.187-1.306.333-2.16.44-.853.133-1.613.2-2.28.2-2.426 0-4.266-.56-5.52-1.68-1.253-1.12-1.88-2.773-1.88-4.96zm21.921-14.28v12.04c0 1.147.306 2.08.92 2.8.64.693 1.48 1.04 2.52 1.04.693 0 1.32-.133 1.88-.4.586-.293 1.106-.733 1.56-1.32V10.44h6.48v20.64h-6.48v-3.36c-.8 1.2-1.76 2.12-2.88 2.76-1.094.613-2.307.92-3.64.92-2 0-3.64-.653-4.92-1.96-1.28-1.333-1.92-3.027-1.92-5.08V10.44h6.48zm32.686 20.64V28.4c-.666.853-1.546 1.533-2.64 2.04a7.913 7.913 0 0 1-3.44.76 8.18 8.18 0 0 1-3.56-.8 9.603 9.603 0 0 1-2.92-2.24c-.8-.96-1.44-2.08-1.92-3.36-.48-1.28-.72-2.64-.72-4.08s.24-2.787.72-4.04c.507-1.28 1.187-2.387 2.04-3.32a9.723 9.723 0 0 1 3.08-2.2 8.622 8.622 0 0 1 3.76-.84 7.4 7.4 0 0 1 3.04.64 7.012 7.012 0 0 1 2.48 1.84V2.48l6.48-1v29.6h-6.4zm-8.84-10.32c0 1.44.467 2.653 1.4 3.64.96.96 2.134 1.44 3.52 1.44.774 0 1.48-.133 2.12-.4a5.54 5.54 0 0 0 1.72-1.24v-6.96a5.178 5.178 0 0 0-1.76-1.16 4.93 4.93 0 0 0-2.08-.44c-1.413 0-2.586.493-3.52 1.48-.933.96-1.4 2.173-1.4 3.64zm23.503-13.52c-1.013 0-1.88-.347-2.6-1.04-.693-.72-1.04-1.573-1.04-2.56 0-.987.36-1.84 1.08-2.56.72-.72 1.574-1.08 2.56-1.08.987 0 1.84.36 2.56 1.08.747.72 1.12 1.573 1.12 2.56 0 .987-.36 1.84-1.08 2.56-.693.693-1.56 1.04-2.6 1.04zm3.24 3.2v20.64h-6.48V10.44h6.48zm4.124 10.36c0-1.52.266-2.933.8-4.24.56-1.307 1.32-2.427 2.28-3.36a10.2 10.2 0 0 1 3.4-2.24c1.333-.56 2.76-.84 4.28-.84 1.52 0 2.946.28 4.28.84 1.333.533 2.48 1.28 3.44 2.24.96.933 1.706 2.053 2.24 3.36.56 1.307.84 2.72.84 4.24s-.28 2.933-.84 4.24a10.732 10.732 0 0 1-2.28 3.4c-.96.933-2.107 1.68-3.44 2.24-1.307.533-2.72.8-4.24.8s-2.947-.267-4.28-.8a10.728 10.728 0 0 1-3.4-2.28c-.96-.96-1.72-2.093-2.28-3.4-.534-1.307-.8-2.707-.8-4.2zm10.76 5.2c1.306 0 2.373-.48 3.2-1.44.853-.987 1.28-2.24 1.28-3.76 0-1.52-.427-2.773-1.28-3.76-.827-1.013-1.894-1.52-3.2-1.52-1.307 0-2.374.507-3.2 1.52-.827.987-1.24 2.24-1.24 3.76 0 1.52.413 2.773 1.24 3.76.826.96 1.893 1.44 3.2 1.44z"/>
</svg>
