<svg xmlns="http://www.w3.org/2000/svg" width="851" height="540" fill="none" viewBox="0 0 851 540">
    <g clip-path="url(#a)">
        <path fill="#3F3D56" d="M529.808 518.645H27.141v1.784h502.667v-1.784zM700.895 520.188V192.662h150.106v327.526H700.895zm2.159-325.364v323.202h145.787V194.824H703.054z"/>
        <path fill="#BDBDBD" d="M824.004 478.032V235.9h-97.191v242.132h97.191z"/>
        <path fill="#2C3EA2" d="M804.562 318.053v-58.371h-58.314v58.371h58.314z"/>
        <path fill="#FFED41" d="M792.946 418.318l24.316-14.052-14.039-24.34-24.316 14.053 14.039 24.339z"/>
        <path fill="#333" d="M771.086 452.09v-95.123h-28.078v95.123h28.078z"/>
        <path fill="#EBC8A8" d="M607.586 308.574l-42.137 89.512 29.496 16.402 52.438-89.511-39.797-16.403z"/>
        <path fill="#BD8D60" d="M607.586 308.574l-42.137 89.512 29.496 16.402 52.438-89.511-39.797-16.403z" opacity=".1"/>
        <path fill="#333" d="M567.323 385.9l-50.566 104.04-28.56 28.588s-39.328.468-23.878 15.465c15.451 14.997 63.207-2.812 63.207-2.812l-1.405 5.624 30.901-2.812-.936-11.247-2.809-1.406s1.873-21.558-2.809-25.776 8.427-9.373 8.427-9.373l53.843-93.73-45.415-6.561z"/>
        <path fill="#EBC8A8" d="M581.835 302.012s-44.946 26.244-33.242 50.145c11.705 23.901 15.451 25.776 15.451 25.776l23.878-17.34-4.214-9.842 46.82-27.182s-36.051-27.65-48.693-21.557z"/>
        <path fill="#333" d="M553.746 374.652l64.143 102.634 6.555 28.587s-23.41 29.525-6.087 31.4c17.323 1.874 36.988-25.776 37.924-38.429.937-12.654 2.341-20.621 2.341-20.621l4.682 1.875s14.046-22.495 7.023-25.307a109.188 109.188 0 0 0-12.641-4.218s-10.301-6.561-20.133-4.218c0 0 1.873-7.498 0-10.779-1.873-3.28-51.873-85.969-51.873-85.969l-31.934 25.045z"/>
        <path fill="#EBC8A8" d="M664.239 98.62c14.222 0 25.751-11.54 25.751-25.776 0-14.235-11.529-25.776-25.751-25.776-14.222 0-25.751 11.54-25.751 25.776s11.529 25.776 25.751 25.776z"/>
        <path fill="#EBC8A8" d="M657.214 89.247s9.364 26.713 7.023 34.211c-2.341 7.499-21.069 42.647-21.069 42.647l2.341 16.403 46.82-72.172s-11.705-15.465-8.428-26.244l-26.687 5.155z"/>
        <path fill="#333" d="M674.538 288.89l-13.577 55.769s-67.421-40.304-86.149-38.898c0 0 40.734-46.396 56.184-46.396 15.451 0 43.542 29.525 43.542 29.525z"/>
        <path fill="#9C0021" d="M708.25 114.084s-10.768-17.34-23.878-2.344c-13.109 14.997-36.987 54.364-36.987 54.364l1.672-11.204s-14.782 11.204-15.718 25.732c-.937 14.528-4.682 63.267-4.682 63.267l-6.087 20.621 58.057 33.742 9.364-15.934s35.114 6.561 38.86 2.344c3.745-4.218-21.81-72.744-21.81-72.744l1.209-97.844z"/>
        <path fill="#EBC8A8" d="M657.214 211.562l-28.092 38.898s-33.71 13.122-28.092 23.901c5.618 10.779 34.178-16.402 34.178-16.402l42.138-37.024-20.132-9.373z"/>
        <path fill="#000" d="M684.84 118.302s-20.6 32.806-21.537 57.644c-.936 24.838-.702 22.261-.702 22.261l-10.3 14.528 24.346 13.591 12.407-12.888s27.624-7.967 24.346-30.931c-3.277-22.964-5.15-65.611-9.832-65.611s-18.728 1.406-18.728 1.406z" opacity=".1"/>
        <path fill="#9C0021" d="M685.778 113.617s-20.601 32.805-21.537 57.644c-.937 24.838 1.404 25.307 1.404 25.307l-12.641 16.871 23.41 12.653 13.577-17.34s27.624-7.967 24.347-30.93c-3.278-22.964-5.151-65.611-9.833-65.611s-18.727 1.406-18.727 1.406z"/>
        <path fill="#333" d="M634.258 67.75s-7.93-38.344 33.601-28.75c0 0 28.562-7.538 40.833 28.005l12.524 37.284-4.883-2.195-1.82 4.949-7.45 2.508-3.744-6.21-.973 7.963-61.747 10.972s26.607-18.63 24.79-48.23l-4.879 6.021-26.252-12.317z"/>
    </g>
    <defs>
        <clipPath id="a">
            <path fill="#fff" d="M0 0h851v540H0z"/>
        </clipPath>
    </defs>
</svg>
